<svg width="1200" height="1200" xmlns="http://www.w3.org/2000/svg" xmlns:xlink="http://www.w3.org/1999/xlink" version="1.1"><g transform="scale(19.285714285714285) translate(-0.8888888888888888, 3.111111021704144)">            <linearGradient id="SvgjsLinearGradient1015"><stop id="SvgjsStop1016" stop-color="#834f2a" offset="0"/><stop id="SvgjsStop1017" stop-color="#dba173" offset="0.5"/><stop id="SvgjsStop1018" stop-color=" #834F2A" offset="1"/></linearGradient>            <g fill="url(#SvgjsLinearGradient1015)"><linearGradient id="SvgjsLinearGradient1015"><stop id="SvgjsStop1016" stop-color="#834f2a" offset="0"/><stop id="SvgjsStop1017" stop-color="#dba173" offset="0.5"/><stop id="SvgjsStop1018" stop-color=" #834F2A" offset="1"/></linearGradient><path xmlns="http://www.w3.org/2000/svg" d="M51.1619 0.137423C51.1317 -0.0458077 50.8683 -0.0458077 50.8381 0.137424L50.5639 1.80185C49.9923 5.27227 47.2723 7.9923 43.8019 8.56393L42.1374 8.83809C41.9542 8.86827 41.9542 9.13173 42.1374 9.16191L43.8019 9.43607C47.2723 10.0077 49.9923 12.7277 50.5639 16.1981L50.8381 17.8626C50.8683 18.0458 51.1317 18.0458 51.1619 17.8626L51.4361 16.1981C52.0077 12.7277 54.7277 10.0077 58.1981 9.43607L59.8626 9.16191C60.0458 9.13173 60.0458 8.86827 59.8626 8.83809L58.1981 8.56393C54.7277 7.9923 52.0077 5.27227 51.4361 1.80185L51.1619 0.137423Z" fill="url(#SvgjsLinearGradient1015)"/><path xmlns="http://www.w3.org/2000/svg" d="M47 22C45.3431 22 44 23.3431 44 25V51C44 51.5523 44.4477 52 45 52C45.5523 52 46 51.5523 46 51V25C46 24.4477 46.4477 24 47 24H55C55.5523 24 56 24.4477 56 25V54H42V35C42 33.3431 40.6569 32 39 32H29C27.3431 32 26 33.3431 26 35V51C26 51.5523 26.4477 52 27 52C27.5523 52 28 51.5523 28 51V35C28 34.4477 28.4477 34 29 34H37C37.5523 34 38 34.4477 38 35V54H24V45C24 43.3431 22.6569 42 21 42H11C9.34315 42 8 43.3431 8 45V51C8 51.5523 8.44771 52 9 52C9.55229 52 10 51.5523 10 51V45C10 44.4477 10.4477 44 11 44H19C19.5523 44 20 44.4477 20 45V54H5C4.44772 54 4 54.4477 4 55C4 55.5523 4.44772 56 5 56H59C59.5523 56 60 55.5523 60 55V25C60 23.3431 58.6569 22 57 22H47Z" fill="url(#SvgjsLinearGradient1015)"/></g>        </g></svg>